<?xml version="1.0" encoding="UTF-8"?>
<svg viewBox="0 0 400 320" xmlns="http://www.w3.org/2000/svg" width="800" height="640"><g><g><path d="M40.13 176.01L41.16 173.42L44.08 171.23L173.48 106.53L177.86 105.07L183.03 104.55L188.2 105.07L192.58 106.53L355.92 188.2L358.84 190.39L359.87 192.98L359.87 199.47L358.84 202.05L355.92 204.24L226.52 268.94L222.14 270.41L216.97 270.92L211.8 270.41L207.42 268.94L44.08 187.27L41.16 185.08L40.13 182.5Z" fill="#0d1117" stroke="rgb(91, 93, 100)" stroke-width="1.15" stroke-linejoin="round" stroke-linecap="round" vector-effect="non-scaling-stroke"></path><path d="M356.57 192.98L355.79 194.93L353.58 196.58L224.18 261.28L220.87 262.39L216.97 262.78L213.07 262.39L209.76 261.28L46.42 179.61L44.21 177.96L43.43 176.01" fill="none" stroke="rgb(41, 41, 45)" stroke-width="1.15" stroke-linejoin="round" stroke-linecap="round" vector-effect="non-scaling-stroke"></path></g><g><path d="M142.52 114.92L142.52 114.22L142.96 113.55L143.79 112.98L179.85 94.95L180.99 94.53L182.33 94.32L183.73 94.32L185.07 94.53L186.21 94.95L230.76 117.22L231.59 117.79L232.02 118.46L232.02 136.05L231.59 136.72L230.76 137.29L194.7 155.32L193.56 155.74L192.22 155.95L190.81 155.95L189.47 155.74L188.33 155.32L143.79 133.05L142.96 132.48L142.52 131.81Z" fill="#0d1117" stroke="rgb(208, 214, 224)" stroke-width="1.15" stroke-linejoin="round" stroke-linecap="round" vector-effect="non-scaling-stroke"></path><path d="M193.42 136.53L192.74 136.77L191.94 136.9L191.09 136.9L190.29 136.77L189.61 136.53L147.6 115.52L147.11 115.18L146.85 114.78L146.85 114.36L147.11 113.96L147.6 113.62L181.12 96.86L181.8 96.61L182.61 96.48L183.45 96.48L184.26 96.61L184.94 96.86L226.94 117.86L227.44 118.2L227.7 118.6L227.7 119.02L227.44 119.43L226.94 119.77Z" fill="none" stroke="rgb(62, 62, 68)" stroke-width="1.15" stroke-linejoin="round" stroke-linecap="round" vector-effect="non-scaling-stroke"></path><path d="M146.85 130.73L147.11 130.33L147.6 129.98L181.12 113.22L181.8 112.98L182.61 112.85L183.45 112.85L184.26 112.98L184.94 113.22L226.94 134.23L227.44 134.57L227.7 134.97" fill="none" stroke="rgb(41, 41, 45)" stroke-width="1.15" stroke-linejoin="round" stroke-linecap="round" vector-effect="non-scaling-stroke"></path><ellipse rx="1.65" ry="0.83" cx="187.27" cy="133.58" fill="rgb(208, 214, 224)" stroke="none"></ellipse><path d="M146.85 114.78L147.11 115.18L147.6 115.52L189.61 136.53L190.29 136.77L191.09 136.9L191.94 136.9L192.74 136.77L193.42 136.53L226.94 119.77L227.44 119.43L227.7 119.02L232.02 119.16L232.02 136.05L231.59 136.72L230.76 137.29L194.7 155.32L193.56 155.74L192.22 155.95L190.81 155.95L189.47 155.74L188.33 155.32L143.79 133.05L142.96 132.48L142.52 131.81L142.52 114.92Z" fill="#0d1117" stroke="none"></path><path d="M142.52 114.92L142.96 115.59L143.79 116.16L188.33 138.43L189.47 138.85L190.81 139.07L192.22 139.07L193.56 138.85L194.7 138.43L230.76 120.4L231.59 119.83L232.02 119.16" fill="none" stroke="rgb(41, 41, 45)" stroke-width="1.15" stroke-linejoin="round" stroke-linecap="round" vector-effect="non-scaling-stroke"></path><path d="M146.85 114.78L147.11 115.18L147.6 115.52L189.61 136.53L190.29 136.77L191.09 136.9L191.94 136.9L192.74 136.77L193.42 136.53L226.94 119.77L227.44 119.43L227.7 119.02" fill="none" stroke="rgb(62, 62, 68)" stroke-width="1.15" stroke-linejoin="round" stroke-linecap="round" vector-effect="non-scaling-stroke"></path><path d="M142.52 114.92L142.52 131.81L142.96 132.48L143.79 133.05L188.33 155.32L189.47 155.74L190.81 155.95L192.22 155.95L193.56 155.74L194.7 155.32L230.76 137.29L231.59 136.72L232.02 136.05L232.02 119.16" fill="none" stroke="rgb(208, 214, 224)" stroke-width="1.15" stroke-linejoin="round" stroke-linecap="round" vector-effect="non-scaling-stroke"></path></g><g><path d="M197.68 146.99L198.11 146.32L198.94 145.75L235 127.72L236.14 127.31L237.48 127.09L238.89 127.09L240.23 127.31L241.37 127.72L281.67 147.87L282.5 148.44L282.93 149.11L282.93 161.51L282.5 162.18L281.67 162.75L245.61 180.78L244.47 181.19L243.13 181.41L241.72 181.41L240.38 181.19L239.24 180.78L198.94 160.63L198.11 160.06L197.68 159.39Z" fill="#0d1117" stroke="rgb(91, 93, 100)" stroke-width="1.15" stroke-linejoin="round" stroke-linecap="round" vector-effect="non-scaling-stroke"></path><path d="M244.34 167.18L243.65 167.43L242.85 167.56L242 167.56L241.2 167.43L240.52 167.18L202.76 148.3L202.26 147.96L202 147.55L202 147.13L202.26 146.73L202.76 146.39L236.27 129.63L236.96 129.38L237.76 129.25L238.61 129.25L239.41 129.38L240.09 129.63L277.85 148.51L278.35 148.85L278.61 149.25L278.61 149.68L278.35 150.08L277.85 150.42Z" fill="none" stroke="rgb(62, 62, 68)" stroke-width="1.15" stroke-linejoin="round" stroke-linecap="round" vector-effect="non-scaling-stroke"></path><path d="M202 158.3L202.26 157.9L202.76 157.56L236.27 140.8L236.96 140.55L237.76 140.42L238.61 140.42L239.41 140.55L240.09 140.8L277.85 159.68L278.35 160.02L278.61 160.43" fill="none" stroke="rgb(41, 41, 45)" stroke-width="1.15" stroke-linejoin="round" stroke-linecap="round" vector-effect="non-scaling-stroke"></path><ellipse rx="1.65" ry="0.83" cx="237.87" cy="158.88" fill="rgb(41, 41, 45)" stroke="none"></ellipse><ellipse rx="1.65" ry="0.83" cx="242.74" cy="161.32" fill="rgb(41, 41, 45)" stroke="none"></ellipse><path d="M202 147.55L202.26 147.96L202.76 148.3L240.52 167.18L241.2 167.43L242 167.56L242.85 167.56L243.65 167.43L244.34 167.18L277.85 150.42L278.35 150.08L278.61 149.68L282.93 149.82L282.93 161.51L282.5 162.18L281.67 162.75L245.61 180.78L244.47 181.19L243.13 181.41L241.72 181.41L240.38 181.19L239.24 180.78L198.94 160.63L198.11 160.06L197.68 159.39L197.68 147.7Z" fill="#0d1117" stroke="none"></path><path d="M197.68 147.7L198.11 148.36L198.94 148.93L239.24 169.09L240.38 169.5L241.72 169.72L243.13 169.72L244.47 169.5L245.61 169.09L281.67 151.06L282.5 150.49L282.93 149.82" fill="none" stroke="rgb(41, 41, 45)" stroke-width="1.15" stroke-linejoin="round" stroke-linecap="round" vector-effect="non-scaling-stroke"></path><path d="M202 147.55L202.26 147.96L202.76 148.3L240.52 167.18L241.2 167.43L242 167.56L242.85 167.56L243.65 167.43L244.34 167.18L277.85 150.42L278.35 150.08L278.61 149.68" fill="none" stroke="rgb(62, 62, 68)" stroke-width="1.15" stroke-linejoin="round" stroke-linecap="round" vector-effect="non-scaling-stroke"></path><path d="M197.68 147.7L197.68 159.39L198.11 160.06L198.94 160.63L239.24 180.78L240.38 181.19L241.72 181.41L243.13 181.41L244.47 181.19L245.61 180.78L281.67 162.75L282.5 162.18L282.93 161.51L282.93 149.82" fill="none" stroke="rgb(91, 93, 100)" stroke-width="1.15" stroke-linejoin="round" stroke-linecap="round" vector-effect="non-scaling-stroke"></path></g><g><path d="M53.43 161.36L53.86 160.69L54.69 160.12L90.75 142.09L91.89 141.68L93.23 141.46L94.64 141.46L95.98 141.68L97.12 142.09L141.66 164.37L142.49 164.94L142.93 165.61L142.93 180.6L142.49 181.27L141.66 181.84L105.6 199.87L104.46 200.28L103.12 200.5L101.72 200.5L100.38 200.28L99.24 199.87L54.69 177.6L53.86 177.03L53.43 176.36Z" fill="#0d1117" stroke="rgb(91, 93, 100)" stroke-width="1.15" stroke-linejoin="round" stroke-linecap="round" vector-effect="non-scaling-stroke"></path><path d="M104.33 183.67L103.65 183.92L102.84 184.05L102 184.05L101.19 183.92L100.51 183.67L58.51 162.67L58.01 162.33L57.75 161.93L57.75 161.5L58.01 161.1L58.51 160.76L92.02 144L92.71 143.75L93.51 143.62L94.36 143.62L95.16 143.75L95.84 144L137.85 165L138.34 165.35L138.6 165.75L138.6 166.17L138.34 166.57L137.85 166.91Z" fill="none" stroke="rgb(62, 62, 68)" stroke-width="1.15" stroke-linejoin="round" stroke-linecap="round" vector-effect="non-scaling-stroke"></path><path d="M57.75 175.27L58.01 174.87L58.51 174.53L92.02 157.77L92.71 157.52L93.51 157.39L94.36 157.39L95.16 157.52L95.84 157.77L137.85 178.77L138.34 179.12L138.6 179.52" fill="none" stroke="rgb(41, 41, 45)" stroke-width="1.15" stroke-linejoin="round" stroke-linecap="round" vector-effect="non-scaling-stroke"></path><ellipse rx="1.65" ry="0.83" cx="83.54" cy="170.81" fill="rgb(41, 41, 45)" stroke="none"></ellipse><ellipse rx="1.65" ry="0.83" cx="88.42" cy="173.25" fill="rgb(41, 41, 45)" stroke="none"></ellipse><ellipse rx="1.65" ry="0.83" cx="93.3" cy="175.69" fill="rgb(41, 41, 45)" stroke="none"></ellipse><ellipse rx="1.65" ry="0.83" cx="98.18" cy="178.13" fill="rgb(41, 41, 45)" stroke="none"></ellipse><ellipse rx="1.65" ry="0.83" cx="103.06" cy="180.57" fill="rgb(41, 41, 45)" stroke="none"></ellipse><ellipse rx="1.65" ry="0.83" cx="107.93" cy="183.01" fill="rgb(41, 41, 45)" stroke="none"></ellipse><ellipse rx="1.65" ry="0.83" cx="112.81" cy="185.45" fill="rgb(41, 41, 45)" stroke="none"></ellipse><path d="M57.75 161.93L58.01 162.33L58.51 162.67L100.51 183.67L101.19 183.92L102 184.05L102.84 184.05L103.65 183.92L104.33 183.67L137.85 166.91L138.34 166.57L138.6 166.17L142.93 166.31L142.93 180.6L142.49 181.27L141.66 181.84L105.6 199.87L104.46 200.28L103.12 200.5L101.72 200.5L100.38 200.28L99.24 199.87L54.69 177.6L53.86 177.03L53.43 176.36L53.43 162.07Z" fill="#0d1117" stroke="none"></path><path d="M53.43 162.07L53.86 162.74L54.69 163.31L99.24 185.58L100.38 185.99L101.72 186.21L103.12 186.21L104.46 185.99L105.6 185.58L141.66 167.55L142.49 166.98L142.93 166.31" fill="none" stroke="rgb(41, 41, 45)" stroke-width="1.15" stroke-linejoin="round" stroke-linecap="round" vector-effect="non-scaling-stroke"></path><path d="M57.75 161.93L58.01 162.33L58.51 162.67L100.51 183.67L101.19 183.92L102 184.05L102.84 184.05L103.65 183.92L104.33 183.67L137.85 166.91L138.34 166.57L138.6 166.17" fill="none" stroke="rgb(62, 62, 68)" stroke-width="1.15" stroke-linejoin="round" stroke-linecap="round" vector-effect="non-scaling-stroke"></path><path d="M53.43 162.07L53.43 176.36L53.86 177.03L54.69 177.6L99.24 199.87L100.38 200.28L101.72 200.5L103.12 200.5L104.46 200.28L105.6 199.87L141.66 181.84L142.49 181.27L142.93 180.6L142.93 166.31" fill="none" stroke="rgb(91, 93, 100)" stroke-width="1.15" stroke-linejoin="round" stroke-linecap="round" vector-effect="non-scaling-stroke"></path></g><g><path d="M248.59 164.65L249.02 163.98L249.85 163.41L285.91 145.38L287.05 144.97L288.39 144.75L289.8 144.75L291.14 144.97L292.28 145.38L345.31 171.9L346.14 172.47L346.57 173.14L346.57 173.84L346.57 193.33L346.14 194L345.31 194.57L309.25 212.6L308.11 213.01L306.77 213.23L305.36 213.23L304.02 213.01L302.88 212.6L249.85 186.08L249.02 185.51L248.59 184.84Z" fill="#0d1117" stroke="rgb(91, 93, 100)" stroke-width="1.15" stroke-linejoin="round" stroke-linecap="round" vector-effect="non-scaling-stroke"></path><path d="M307.98 191.2L307.29 191.45L306.49 191.58L305.64 191.58L304.84 191.45L304.16 191.2L253.67 165.96L253.17 165.62L252.91 165.22L252.91 164.79L253.17 164.39L253.67 164.05L287.19 147.29L287.87 147.04L288.67 146.91L289.52 146.91L290.32 147.04L291 147.29L341.49 172.54L341.99 172.88L342.25 173.28L342.25 173.7L341.99 174.1L341.49 174.44Z" fill="none" stroke="rgb(62, 62, 68)" stroke-width="1.15" stroke-linejoin="round" stroke-linecap="round" vector-effect="non-scaling-stroke"></path><path d="M252.91 183.76L253.17 183.36L253.67 183.02L287.19 166.26L287.87 166.01L288.67 165.88L289.52 165.88L290.32 166.01L291 166.26L341.49 191.5L341.99 191.84L342.25 192.25" fill="none" stroke="rgb(41, 41, 45)" stroke-width="1.15" stroke-linejoin="round" stroke-linecap="round" vector-effect="non-scaling-stroke"></path><ellipse rx="1.65" ry="0.83" cx="292.7" cy="186.29" fill="rgb(41, 41, 45)" stroke="none"></ellipse><ellipse rx="1.65" ry="0.83" cx="297.58" cy="188.73" fill="rgb(41, 41, 45)" stroke="none"></ellipse><ellipse rx="1.65" ry="0.83" cx="302.46" cy="191.17" fill="rgb(41, 41, 45)" stroke="none"></ellipse><path d="M252.91 165.22L253.17 165.62L253.67 165.96L304.16 191.2L304.84 191.45L305.64 191.58L306.49 191.58L307.29 191.45L307.98 191.2L341.49 174.44L341.99 174.1L342.25 173.7L346.57 173.84L346.57 193.33L346.14 194L345.31 194.57L309.25 212.6L308.11 213.01L306.77 213.23L305.36 213.23L304.02 213.01L302.88 212.6L249.85 186.08L249.02 185.51L248.59 184.84L248.59 165.36Z" fill="#0d1117" stroke="none"></path><path d="M248.59 165.36L249.02 166.03L249.85 166.6L302.88 193.11L304.02 193.53L305.36 193.74L306.77 193.74L308.11 193.53L309.25 193.11L345.31 175.08L346.14 174.51L346.57 173.84" fill="none" stroke="rgb(41, 41, 45)" stroke-width="1.15" stroke-linejoin="round" stroke-linecap="round" vector-effect="non-scaling-stroke"></path><path d="M252.91 165.22L253.17 165.62L253.67 165.96L304.16 191.2L304.84 191.45L305.64 191.58L306.49 191.58L307.29 191.45L307.98 191.2L341.49 174.44L341.99 174.1L342.25 173.7" fill="none" stroke="rgb(62, 62, 68)" stroke-width="1.15" stroke-linejoin="round" stroke-linecap="round" vector-effect="non-scaling-stroke"></path><path d="M248.59 165.36L248.59 184.84L249.02 185.51L249.85 186.08L302.88 212.6L304.02 213.01L305.36 213.23L306.77 213.23L308.11 213.01L309.25 212.6L345.31 194.57L346.14 194L346.57 193.33L346.57 173.84" fill="none" stroke="rgb(91, 93, 100)" stroke-width="1.15" stroke-linejoin="round" stroke-linecap="round" vector-effect="non-scaling-stroke"></path></g><g><path d="M108.58 193.54L108.58 192.84L109.02 192.17L109.84 191.6L145.91 173.57L147.05 173.15L148.38 172.94L149.79 172.94L151.13 173.15L152.27 173.57L192.58 193.72L193.4 194.29L193.84 194.96L193.84 206.06L193.4 206.73L192.58 207.29L156.51 225.33L155.37 225.74L154.03 225.96L152.63 225.96L151.29 225.74L150.15 225.33L109.84 205.17L109.02 204.6L108.58 203.93Z" fill="#0d1117" stroke="rgb(91, 93, 100)" stroke-width="1.15" stroke-linejoin="round" stroke-linecap="round" vector-effect="non-scaling-stroke"></path><path d="M155.24 213.02L154.56 213.27L153.75 213.4L152.91 213.4L152.11 213.27L151.42 213.02L113.66 194.14L113.17 193.8L112.9 193.4L112.9 192.98L113.17 192.58L113.66 192.24L147.18 175.48L147.86 175.23L148.67 175.1L149.51 175.1L150.31 175.23L151 175.48L188.76 194.36L189.25 194.7L189.51 195.1L189.51 195.52L189.25 195.92L188.76 196.27Z" fill="none" stroke="rgb(62, 62, 68)" stroke-width="1.15" stroke-linejoin="round" stroke-linecap="round" vector-effect="non-scaling-stroke"></path><path d="M112.9 202.85L113.17 202.45L113.66 202.11L147.18 185.35L147.86 185.1L148.67 184.97L149.51 184.97L150.31 185.1L151 185.35L188.76 204.23L189.25 204.57L189.51 204.97" fill="none" stroke="rgb(41, 41, 45)" stroke-width="1.15" stroke-linejoin="round" stroke-linecap="round" vector-effect="non-scaling-stroke"></path><ellipse rx="1.65" ry="0.83" cx="139.01" cy="198.54" fill="rgb(41, 41, 45)" stroke="none"></ellipse><ellipse rx="1.65" ry="0.83" cx="143.89" cy="200.98" fill="rgb(41, 41, 45)" stroke="none"></ellipse><ellipse rx="1.65" ry="0.83" cx="148.77" cy="203.42" fill="rgb(41, 41, 45)" stroke="none"></ellipse><ellipse rx="1.65" ry="0.83" cx="153.65" cy="205.86" fill="rgb(41, 41, 45)" stroke="none"></ellipse><ellipse rx="1.65" ry="0.83" cx="158.53" cy="208.3" fill="rgb(41, 41, 45)" stroke="none"></ellipse><ellipse rx="1.65" ry="0.83" cx="163.41" cy="210.74" fill="rgb(41, 41, 45)" stroke="none"></ellipse><path d="M112.9 193.4L113.17 193.8L113.66 194.14L151.42 213.02L152.11 213.27L152.91 213.4L153.75 213.4L154.56 213.27L155.24 213.02L188.76 196.27L189.25 195.92L189.51 195.52L193.84 195.66L193.84 206.06L193.4 206.73L192.58 207.29L156.51 225.33L155.37 225.74L154.03 225.96L152.63 225.96L151.29 225.74L150.15 225.33L109.84 205.17L109.02 204.6L108.58 203.93L108.58 193.54Z" fill="#0d1117" stroke="none"></path><path d="M108.58 193.54L109.02 194.21L109.84 194.78L150.15 214.93L151.29 215.35L152.63 215.56L154.03 215.56L155.37 215.35L156.51 214.93L192.58 196.9L193.4 196.33L193.84 195.66" fill="none" stroke="rgb(41, 41, 45)" stroke-width="1.15" stroke-linejoin="round" stroke-linecap="round" vector-effect="non-scaling-stroke"></path><path d="M112.9 193.4L113.17 193.8L113.66 194.14L151.42 213.02L152.11 213.27L152.91 213.4L153.75 213.4L154.56 213.27L155.24 213.02L188.76 196.27L189.25 195.92L189.51 195.52" fill="none" stroke="rgb(62, 62, 68)" stroke-width="1.15" stroke-linejoin="round" stroke-linecap="round" vector-effect="non-scaling-stroke"></path><path d="M108.58 193.54L108.58 203.93L109.02 204.6L109.84 205.17L150.15 225.33L151.29 225.74L152.63 225.96L154.03 225.96L155.37 225.74L156.51 225.33L192.58 207.29L193.4 206.73L193.84 206.06L193.84 195.66" fill="none" stroke="rgb(91, 93, 100)" stroke-width="1.15" stroke-linejoin="round" stroke-linecap="round" vector-effect="non-scaling-stroke"></path></g><g><path d="M206.16 192.36L206.6 191.69L207.42 191.12L239.24 175.21L240.38 174.8L241.72 174.58L243.13 174.58L244.47 174.8L245.61 175.21L298.64 201.73L299.47 202.3L299.9 202.97L299.9 216.66L299.47 217.33L298.64 217.9L266.82 233.81L265.68 234.22L264.34 234.44L262.94 234.44L261.6 234.22L260.46 233.81L207.42 207.29L206.6 206.73L206.16 206.06Z" fill="#0d1117" stroke="rgb(91, 93, 100)" stroke-width="1.15" stroke-linejoin="round" stroke-linecap="round" vector-effect="non-scaling-stroke"></path><path d="M265.55 218.91L264.87 219.16L264.06 219.29L263.22 219.29L262.41 219.16L261.73 218.91L211.24 193.67L210.75 193.33L210.49 192.92L210.49 192.5L210.75 192.1L211.24 191.76L240.52 177.12L241.2 176.87L242 176.74L242.85 176.74L243.65 176.87L244.34 177.12L294.82 202.37L295.32 202.71L295.58 203.11L295.58 203.53L295.32 203.93L294.82 204.27Z" fill="none" stroke="rgb(62, 62, 68)" stroke-width="1.15" stroke-linejoin="round" stroke-linecap="round" vector-effect="non-scaling-stroke"></path><path d="M210.49 204.97L210.75 204.57L211.24 204.23L240.52 189.59L241.2 189.34L242 189.21L242.85 189.21L243.65 189.34L244.34 189.59L294.82 214.84L295.32 215.18L295.58 215.58" fill="none" stroke="rgb(41, 41, 45)" stroke-width="1.15" stroke-linejoin="round" stroke-linecap="round" vector-effect="non-scaling-stroke"></path><ellipse rx="1.65" ry="0.83" cx="245.71" cy="207.35" fill="rgb(41, 41, 45)" stroke="none"></ellipse><ellipse rx="1.65" ry="0.83" cx="250.59" cy="209.79" fill="rgb(41, 41, 45)" stroke="none"></ellipse><ellipse rx="1.65" ry="0.83" cx="255.47" cy="212.23" fill="rgb(41, 41, 45)" stroke="none"></ellipse><ellipse rx="1.65" ry="0.83" cx="260.35" cy="214.67" fill="rgb(41, 41, 45)" stroke="none"></ellipse><path d="M210.49 192.92L210.75 193.33L211.24 193.67L261.73 218.91L262.41 219.16L263.22 219.29L264.06 219.29L264.87 219.16L265.55 218.91L294.82 204.27L295.32 203.93L295.58 203.53L299.9 203.67L299.9 216.66L299.47 217.33L298.64 217.9L266.82 233.81L265.68 234.22L264.34 234.44L262.94 234.44L261.6 234.22L260.46 233.81L207.42 207.29L206.6 206.73L206.16 206.06L206.16 193.07Z" fill="#0d1117" stroke="none"></path><path d="M206.16 193.07L206.6 193.73L207.42 194.3L260.46 220.82L261.6 221.23L262.94 221.45L264.34 221.45L265.68 221.23L266.82 220.82L298.64 204.91L299.47 204.34L299.9 203.67" fill="none" stroke="rgb(41, 41, 45)" stroke-width="1.15" stroke-linejoin="round" stroke-linecap="round" vector-effect="non-scaling-stroke"></path><path d="M210.49 192.92L210.75 193.33L211.24 193.67L261.73 218.91L262.41 219.16L263.22 219.29L264.06 219.29L264.87 219.16L265.55 218.91L294.82 204.27L295.32 203.93L295.58 203.53" fill="none" stroke="rgb(62, 62, 68)" stroke-width="1.15" stroke-linejoin="round" stroke-linecap="round" vector-effect="non-scaling-stroke"></path><path d="M206.16 193.07L206.16 206.06L206.6 206.73L207.42 207.29L260.46 233.81L261.6 234.22L262.94 234.44L264.34 234.44L265.68 234.22L266.82 233.81L298.64 217.9L299.47 217.33L299.9 216.66L299.9 203.67" fill="none" stroke="rgb(91, 93, 100)" stroke-width="1.15" stroke-linejoin="round" stroke-linecap="round" vector-effect="non-scaling-stroke"></path></g><g><path d="M159.49 207.9L159.93 207.23L160.76 206.66L196.82 188.63L197.96 188.22L199.3 188L200.7 188L202.04 188.22L203.18 188.63L256.21 215.15L257.04 215.72L257.48 216.39L257.48 237.88L257.04 238.55L256.21 239.11L220.15 257.15L219.01 257.56L217.67 257.78L216.27 257.78L214.93 257.56L213.79 257.15L160.76 230.63L159.93 230.06L159.49 229.39Z" fill="#0d1117" stroke="rgb(91, 93, 100)" stroke-width="1.15" stroke-linejoin="round" stroke-linecap="round" vector-effect="non-scaling-stroke"></path><path d="M218.88 234.45L218.2 234.7L217.39 234.83L216.55 234.83L215.74 234.7L215.06 234.45L164.57 209.21L164.08 208.87L163.82 208.46L163.82 208.04L164.08 207.64L164.57 207.3L198.09 190.54L198.77 190.29L199.58 190.16L200.42 190.16L201.23 190.29L201.91 190.54L252.4 215.78L252.89 216.13L253.15 216.53L253.15 216.95L252.89 217.35L252.4 217.69Z" fill="none" stroke="rgb(62, 62, 68)" stroke-width="1.15" stroke-linejoin="round" stroke-linecap="round" vector-effect="non-scaling-stroke"></path><path d="M163.82 228.31L164.08 227.91L164.57 227.56L198.09 210.81L198.77 210.56L199.58 210.43L200.42 210.43L201.23 210.56L201.91 210.81L252.4 236.05L252.89 236.39L253.15 236.79" fill="none" stroke="rgb(41, 41, 45)" stroke-width="1.15" stroke-linejoin="round" stroke-linecap="round" vector-effect="non-scaling-stroke"></path><ellipse rx="1.65" ry="0.83" cx="198.73" cy="228.4" fill="rgb(41, 41, 45)" stroke="none"></ellipse><ellipse rx="1.65" ry="0.83" cx="203.61" cy="230.84" fill="rgb(41, 41, 45)" stroke="none"></ellipse><ellipse rx="1.65" ry="0.83" cx="208.49" cy="233.28" fill="rgb(41, 41, 45)" stroke="none"></ellipse><ellipse rx="1.65" ry="0.83" cx="213.36" cy="235.72" fill="rgb(41, 41, 45)" stroke="none"></ellipse><ellipse rx="1.65" ry="0.83" cx="218.24" cy="238.16" fill="rgb(41, 41, 45)" stroke="none"></ellipse><path d="M163.82 208.46L164.08 208.87L164.57 209.21L215.06 234.45L215.74 234.7L216.55 234.83L217.39 234.83L218.2 234.7L218.88 234.45L252.4 217.69L252.89 217.35L253.15 216.95L257.48 217.09L257.48 237.88L257.04 238.55L256.21 239.11L220.15 257.15L219.01 257.56L217.67 257.78L216.27 257.78L214.93 257.56L213.79 257.15L160.76 230.63L159.93 230.06L159.49 229.39L159.49 208.61Z" fill="#0d1117" stroke="none"></path><path d="M159.49 208.61L159.93 209.28L160.76 209.84L213.79 236.36L214.93 236.77L216.27 236.99L217.67 236.99L219.01 236.77L220.15 236.36L256.21 218.33L257.04 217.76L257.48 217.09" fill="none" stroke="rgb(41, 41, 45)" stroke-width="1.15" stroke-linejoin="round" stroke-linecap="round" vector-effect="non-scaling-stroke"></path><path d="M163.82 208.46L164.08 208.87L164.57 209.21L215.06 234.45L215.74 234.7L216.55 234.83L217.39 234.83L218.2 234.7L218.88 234.45L252.4 217.69L252.89 217.35L253.15 216.95" fill="none" stroke="rgb(62, 62, 68)" stroke-width="1.15" stroke-linejoin="round" stroke-linecap="round" vector-effect="non-scaling-stroke"></path><path d="M159.49 208.61L159.49 229.39L159.93 230.06L160.76 230.63L213.79 257.15L214.93 257.56L216.27 257.78L217.67 257.78L219.01 257.56L220.15 257.15L256.21 239.11L257.04 238.55L257.48 237.88L257.48 217.09" fill="none" stroke="rgb(91, 93, 100)" stroke-width="1.15" stroke-linejoin="round" stroke-linecap="round" vector-effect="non-scaling-stroke"></path></g></g></svg>
